<?xml version="1.0" encoding="UTF-8" standalone="no"?>
<!-- Created with Inkscape (http://www.inkscape.org/) -->

<svg
   width="210mm"
   height="297mm"
   viewBox="0 0 210 297"
   version="1.1"
   id="svg5"
   sodipodi:docname="9.22.svg"
   xml:space="preserve"
   inkscape:export-filename="Desktop/楽器.svg"
   inkscape:export-xdpi="96"
   inkscape:export-ydpi="96"
   inkscape:version="1.2.2 (b0a84865, 2022-12-01)"
   xmlns:inkscape="http://www.inkscape.org/namespaces/inkscape"
   xmlns:sodipodi="http://sodipodi.sourceforge.net/DTD/sodipodi-0.dtd"
   xmlns="http://www.w3.org/2000/svg"
   xmlns:svg="http://www.w3.org/2000/svg"><sodipodi:namedview
     id="namedview7"
     pagecolor="#ffffff"
     bordercolor="#000000"
     borderopacity="0.25"
     inkscape:showpageshadow="2"
     inkscape:pageopacity="0.0"
     inkscape:pagecheckerboard="0"
     inkscape:deskcolor="#d1d1d1"
     inkscape:document-units="mm"
     showgrid="false"
     inkscape:zoom="0.48266059"
     inkscape:cx="280.73558"
     inkscape:cy="495.17198"
     inkscape:window-width="1440"
     inkscape:window-height="900"
     inkscape:window-x="0"
     inkscape:window-y="0"
     inkscape:window-maximized="0"
     inkscape:current-layer="layer1" /><defs
     id="defs2"><inkscape:path-effect
       effect="powerclip"
       id="path-effect2738"
       is_visible="true"
       lpeversion="1"
       inverse="true"
       flatten="false"
       hide_clip="false"
       message="クリップをパスに変換した後に残らない場合には&lt;b&gt;フィル/ストローク&lt;/b&gt;ダイアログのフィルルールで evenodd を使用します。" /><linearGradient
       id="linearGradient3865"
       inkscape:swatch="solid"><stop
         style="stop-color:#000000;stop-opacity:1;"
         offset="0"
         id="stop3863" /></linearGradient><clipPath
       clipPathUnits="userSpaceOnUse"
       id="clipPath2734"><rect
         style="display:none;fill:#1a1a1a;fill-opacity:1;stroke:none;stroke-width:0.0893421;stroke-dasharray:none;stroke-opacity:1"
         id="rect2736"
         width="14.808507"
         height="2.5972705"
         x="52.618999"
         y="295.63788"
         ry="9.2212958e-06"
         d="m 52.619009,295.63788 h 14.808488 c 5e-6,0 9e-6,0 9e-6,1e-5 v 2.59725 c 0,0 -4e-6,10e-6 -9e-6,10e-6 H 52.619009 c -5e-6,0 -10e-6,-10e-6 -10e-6,-10e-6 v -2.59725 c 0,-1e-5 5e-6,-1e-5 10e-6,-1e-5 z" /><path
         id="lpe_path-effect2738"
         style="fill:#1a1a1a;fill-opacity:1;stroke:none;stroke-width:0.0893421;stroke-dasharray:none;stroke-opacity:1"
         class="powerclip"
         d="m 47.530167,246.02323 h 25.000662 v 56.02061 H 47.530167 Z m 5.088842,49.61465 c -5e-6,0 -10e-6,0 -10e-6,1e-5 v 2.59725 c 0,0 5e-6,10e-6 10e-6,10e-6 h 14.808488 c 5e-6,0 9e-6,-10e-6 9e-6,-10e-6 v -2.59725 c 0,-1e-5 -4e-6,-1e-5 -9e-6,-1e-5 z" /></clipPath></defs><g
     inkscape:label="Layer 1"
     inkscape:groupmode="layer"
     id="layer1"><path
       id="rect268"
       style="fill:#ff0000;stroke-width:0.000886588"
       transform="scale(-1,1)"
       d="m -115.039,0 h 0.078 v 297.57837 h -0.078 z" /><path
       id="rect433"
       style="fill:none;stroke:#ff0000;stroke-width:0.101"
       transform="scale(1,-1)"
       d="m 47.480499,-32.990749 h 20 v 10 h -20 z" /><path
       id="rect437-87"
       style="opacity:1;fill:#280b0b;fill-opacity:0;stroke:#ff0000;stroke-width:0.101"
       d="M 79.748779,57.177692 H 110 V 148.09169 H 79.748779 Z" /><path
       id="rect437-8"
       style="fill:none;stroke:#ff0000;stroke-width:0.101"
       d="m 67.581497,57.177692 h 10 v 90.913998 h -10 z" /><path
       id="rect437-8-8"
       style="fill:none;stroke:#ff0000;stroke-width:0.087673"
       d="M 52.574004,251.06707 H 67.486992 V 297 H 52.574004 Z"
       clip-path="url(#clipPath2734)"
       inkscape:path-effect="#path-effect2738"
       inkscape:original-d="M 52.574004,251.06707 H 67.486992 V 297 H 52.574004 Z" /></g></svg>
